<svg version="1.1" class="site__hed--logo" id="Layer_1" xmlns="http://www.w3.org/2000/svg" xmlns:xlink="http://www.w3.org/1999/xlink" x="0px" y="0px"
	 viewBox="0 0 188 51" style="enable-background:new 0 0 188 51;" xml:space="preserve">
<style type="text/css">
	.st0{fill:#6E6D6E;}
	.st1{fill:#A9A8A8;}
	.st2{fill:#C4C4C4;}
</style>
<g>
	<path class="st0" d="M25.8,38.9v6.3c0,1.5-0.1,2.9-1.2,4c-0.9,0.9-2.4,1.3-3.7,1.3c-1.3,0-2.8-0.3-3.7-1.3c-1.1-1.1-1.2-2.5-1.2-4
		v-6.3h2.9v5.9c0,1.5,0.1,3.1,2,3.1s2-1.6,2-3.1v-5.9H25.8z"/>
	<path class="st0" d="M28.4,49.1c0,0.7-0.6,1.3-1.3,1.3c-0.7,0-1.3-0.6-1.3-1.3c0-0.7,0.6-1.3,1.3-1.3
		C27.8,47.8,28.4,48.4,28.4,49.1z"/>
	<path class="st0" d="M35.6,41.8c-0.5-0.4-1.2-0.7-1.9-0.7c-0.5,0-1.3,0.3-1.3,0.9c0,0.7,0.8,0.9,1.3,1.1l0.7,0.2
		c1.6,0.5,2.8,1.3,2.8,3.1c0,1.1-0.3,2.3-1.2,3c-0.9,0.7-2.1,1.1-3.2,1.1c-1.4,0-2.8-0.5-4-1.3l1.3-2.4c0.7,0.6,1.6,1.2,2.6,1.2
		c0.7,0,1.4-0.3,1.4-1.1c0-0.8-1.2-1.1-1.8-1.3c-1.8-0.5-3.1-1-3.1-3.2c0-2.3,1.6-3.8,3.9-3.8c1.1,0,2.5,0.4,3.5,0.9L35.6,41.8z"/>
	<path class="st0" d="M39.5,49.1c0,0.7-0.6,1.3-1.3,1.3c-0.7,0-1.3-0.6-1.3-1.3c0-0.7,0.6-1.3,1.3-1.3C39,47.8,39.5,48.4,39.5,49.1z
		"/>
	<path class="st0" d="M48.7,41.8c-0.5-0.4-1.2-0.7-1.9-0.7c-0.5,0-1.3,0.3-1.3,0.9c0,0.7,0.8,0.9,1.3,1.1l0.7,0.2
		c1.6,0.5,2.8,1.3,2.8,3.1c0,1.1-0.3,2.3-1.2,3c-0.9,0.7-2.1,1.1-3.2,1.1c-1.4,0-2.8-0.5-4-1.3l1.3-2.4c0.7,0.6,1.6,1.2,2.6,1.2
		c0.7,0,1.4-0.3,1.4-1.1c0-0.8-1.2-1.1-1.8-1.3c-1.8-0.5-3.1-1-3.1-3.2c0-2.3,1.6-3.8,3.9-3.8c1.1,0,2.5,0.4,3.5,0.9L48.7,41.8z"/>
	<path class="st0" d="M53.9,41.4v1.9h3.3v2.5h-3.3v1.9h3.5v2.5H51V38.9h6.4v2.5H53.9z"/>
	<path class="st0" d="M58.5,38.9h2.9l5.4,6.9h0v-6.9h2.9v11.3h-2.9l-5.4-6.9h0v6.9h-2.9V38.9z"/>
	<path class="st0" d="M73.8,48.2l-0.8,2h-3.1l4.3-11.3h3.2l4.3,11.3h-3.1l-0.7-2H73.8z M75.8,42.4L75.8,42.4L74.6,46H77L75.8,42.4z"
		/>
	<path class="st0" d="M85.4,50.2h-2.9v-8.8h-2.4v-2.5h7.8v2.5h-2.4V50.2z"/>
	<path class="st0" d="M100.1,44.4c0,3.7-2.6,6.2-6.2,6.2c-3.6,0-6.2-2.6-6.2-6.2c0-3.4,3-5.8,6.2-5.8S100.1,40.9,100.1,44.4z
		 M90.7,44.4c0,1.9,1.4,3.4,3.2,3.4c1.8,0,3.2-1.4,3.2-3.4c0-1.6-1.4-3-3.2-3C92.1,41.4,90.7,42.8,90.7,44.4z"/>
	<path class="st0" d="M110.1,50.2h-3.7l-2.8-4.3h0v4.3h-2.9V38.9h4.4c2.2,0,3.9,1.1,3.9,3.5c0,1.6-0.9,2.9-2.5,3.2L110.1,50.2z
		 M103.6,44h0.3c1,0,2-0.2,2-1.4c0-1.2-1.1-1.4-2-1.4h-0.3V44z"/>
	<g>
		<path class="st0" d="M18,16.9c-1.3-1.7-3.3-2.6-5.4-2.6c-3.8,0-6.3,2.9-6.3,6.5c0,3.7,2.6,6.4,6.4,6.4c2,0,4-1,5.3-2.5v7.3
			c-2,0.6-3.5,1.1-5.4,1.1c-3.3,0-6.4-1.3-8.8-3.5C1.2,27.3,0,24.3,0,20.8c0-3.2,1.2-6.3,3.5-8.6c2.3-2.4,5.7-3.8,9-3.8
			c2,0,3.8,0.4,5.6,1.2V16.9z"/>
		<path class="st0" d="M25.5,6.6v11.9h0.1c1.3-1.8,2.9-2.6,5.1-2.6c4.1,0,6,2.7,6,6.8v9.8H31v-8.2c0-1.9-0.3-3.8-2.6-3.8
			c-2.3,0-3,1.9-3,3.8v8.2h-5.7V6.6H25.5z"/>
		<path class="st0" d="M44.3,19.1L44.3,19.1c1.2-2,3-2.8,5.3-2.8h1.1v5.5c-0.8-0.4-1.5-0.5-2.4-0.5c-3.2,0-3.9,2.1-3.9,4.8v6.5h-5.7
			v-16h5.7V19.1z"/>
		<path class="st0" d="M57.6,10.3c0,1.8-1.4,3.2-3.2,3.2c-1.8,0-3.2-1.4-3.2-3.2c0-1.8,1.4-3.2,3.2-3.2C56.1,7.2,57.6,8.6,57.6,10.3
			z M57.2,32.5h-5.7v-16h5.7V32.5z"/>
		<path class="st0" d="M69.7,20.6c-0.9-0.5-2.1-0.8-3.1-0.8c-0.7,0-1.8,0.3-1.8,1.1c0,1.1,1.8,1.3,2.6,1.4c2.7,0.5,4.7,1.8,4.7,4.8
			c0,4.2-3.8,6-7.6,6c-2.3,0-4.5-0.7-6.5-1.8l2.1-4c1.2,0.8,3.1,1.6,4.5,1.6c0.7,0,1.8-0.3,1.8-1.2c0-1.3-1.8-1.3-3.6-1.8
			c-1.8-0.5-3.6-1.3-3.6-4.2c0-3.9,3.6-5.7,7.1-5.7c1.8,0,3.6,0.3,5.3,1L69.7,20.6z"/>
		<path class="st0" d="M75.3,9h6l4.8,12.6L91.2,9h6.1l3.6,23.6h-6.1L93,19H93l-5.7,13.6h-2.4L79.5,19h-0.1l-2,13.6h-6.1L75.3,9z"/>
		<path class="st0" d="M107.1,16.5v8.6c0,2,0.5,3.5,2.8,3.5c2.3,0,2.8-1.4,2.8-3.5v-8.6h5.7v9.7c0,5.3-3.7,6.9-8.5,6.9
			c-4.8,0-8.5-1.6-8.5-6.9v-9.7H107.1z"/>
		<path class="st0" d="M125.3,19.1L125.3,19.1c1.2-2,3-2.8,5.3-2.8h1.1v5.5c-0.8-0.4-1.5-0.5-2.4-0.5c-3.2,0-3.9,2.1-3.9,4.8v6.5
			h-5.7v-16h5.7V19.1z"/>
		<path class="st0" d="M138,18.3L138,18.3c1.1-1.6,3-2.3,4.9-2.3c4.8,0,8.1,4,8.1,8.6c0,4.6-3.3,8.5-8,8.5c-1.8,0-3.8-0.7-5-2.1v9.5
			h-5.7v-24h5.7V18.3z M137.8,24.5c0,2,1.3,3.6,3.7,3.6c2.3,0,3.7-1.6,3.7-3.6c0-2-1.3-3.6-3.7-3.6
			C139.1,20.9,137.8,22.6,137.8,24.5z"/>
		<path class="st0" d="M157,6.6v11.9h0.1c1.3-1.8,2.9-2.6,5.1-2.6c4.1,0,6,2.7,6,6.8v9.8h-5.7v-8.2c0-1.9-0.3-3.8-2.6-3.8
			c-2.3,0-3,1.9-3,3.8v8.2h-5.7V6.6H157z"/>
		<path class="st0" d="M166.5,16.5h6.6l4.3,8.2l4.2-8.2h6.5l-12.8,24h-6.4l5.5-10.2L166.5,16.5z"/>
	</g>
	<polygon class="st0" points="109.6,-0.1 110.6,3.2 114.1,3.2 111.3,5.2 112.4,8.5 109.6,6.5 106.8,8.5 107.8,5.2 105,3.2 
		108.5,3.2 	"/>
	<polygon class="st1" points="124.1,-0.1 125.1,3.2 128.6,3.2 125.8,5.2 126.8,8.5 124.1,6.5 121.3,8.5 122.3,5.2 119.5,3.2 
		123,3.2 	"/>
	<polygon class="st2" points="138.5,-0.1 139.6,3.2 143.1,3.2 140.3,5.2 141.3,8.5 138.5,6.5 135.7,8.5 136.8,5.2 134,3.2 
		137.5,3.2 	"/>
</g>
</svg>
